<svg width="16" height="19" fill="none" xmlns="http://www.w3.org/2000/svg"><path d="M8.017 12.066a8.273 8.273 0 00-5.262 1.876A7.823 7.823 0 000 18.677h1.16a6.715 6.715 0 012.4-3.942A7.094 7.094 0 018 13.183c1.621 0 3.192.549 4.44 1.552a6.715 6.715 0 012.4 3.942H16a7.822 7.822 0 00-2.742-4.724 8.272 8.272 0 00-5.24-1.887zM8.017 10.94c1.224 0 2.41-.412 3.357-1.165a5.106 5.106 0 001.831-2.966 4.996 4.996 0 00-.524-3.42 5.236 5.236 0 00-2.641-2.322A5.444 5.444 0 006.48.9a5.28 5.28 0 00-2.864 2.06 5.013 5.013 0 00-.865 3.354 5.07 5.07 0 001.525 3.125 5.381 5.381 0 003.741 1.502zm0-9.143a4.228 4.228 0 012.3.674 4.042 4.042 0 011.527 1.8 3.9 3.9 0 01.236 2.32 3.975 3.975 0 01-1.132 2.055 4.177 4.177 0 01-2.12 1.098 4.256 4.256 0 01-2.39-.23 4.111 4.111 0 01-1.856-1.48 3.926 3.926 0 01-.695-2.23A3.958 3.958 0 015.1 2.973a4.208 4.208 0 012.917-1.177z" fill="#5A8FA8"/></svg>