<svg width="546" height="60" viewBox="0 0 546 60" fill="none" xmlns="http://www.w3.org/2000/svg">
<mask id="mask0" mask-type="alpha" maskUnits="userSpaceOnUse" x="0" y="0" width="546" height="60">
<path d="M0 30C0 13.4315 13.4315 0 30 0H546V60H30C13.4315 60 0 46.5685 0 30Z" fill="#009F6C"/>
</mask>
<g mask="url(#mask0)">
<path d="M-23.626 -4.50601L-22.8068 -5.07959L54.626 105.506L53.8068 106.08L-23.626 -4.50601Z" fill="white" fill-opacity="0.2"/>
<path d="M-13.626 -4.50601L-12.8068 -5.07959L64.626 105.506L63.8068 106.08L-13.626 -4.50601Z" fill="white" fill-opacity="0.2"/>
<path d="M-3.62598 -4.50601L-2.80682 -5.07959L74.626 105.506L73.8068 106.08L-3.62598 -4.50601Z" fill="white" fill-opacity="0.2"/>
<path d="M6.37402 -4.50601L7.19318 -5.07959L84.626 105.506L83.8068 106.08L6.37402 -4.50601Z" fill="white" fill-opacity="0.2"/>
<path d="M16.374 -4.50601L17.1932 -5.07959L94.626 105.506L93.8068 106.08L16.374 -4.50601Z" fill="white" fill-opacity="0.2"/>
<path d="M26.374 -4.50601L27.1932 -5.07959L104.626 105.506L103.807 106.08L26.374 -4.50601Z" fill="white" fill-opacity="0.2"/>
<path d="M36.374 -4.50601L37.1932 -5.07959L114.626 105.506L113.807 106.08L36.374 -4.50601Z" fill="white" fill-opacity="0.2"/>
<path d="M46.374 -4.50601L47.1932 -5.07959L124.626 105.506L123.807 106.08L46.374 -4.50601Z" fill="white" fill-opacity="0.2"/>
<path d="M56.374 -4.50601L57.1932 -5.07959L134.626 105.506L133.807 106.08L56.374 -4.50601Z" fill="white" fill-opacity="0.2"/>
<path d="M66.374 -4.50601L67.1932 -5.07959L144.626 105.506L143.807 106.08L66.374 -4.50601Z" fill="white" fill-opacity="0.2"/>
<path d="M76.374 -4.50601L77.1932 -5.07959L154.626 105.506L153.807 106.08L76.374 -4.50601Z" fill="white" fill-opacity="0.2"/>
<path d="M86.374 -4.50601L87.1932 -5.07959L164.626 105.506L163.807 106.08L86.374 -4.50601Z" fill="white" fill-opacity="0.2"/>
<path d="M96.374 -4.50601L97.1932 -5.07959L174.626 105.506L173.807 106.08L96.374 -4.50601Z" fill="white" fill-opacity="0.2"/>
<path d="M106.374 -4.50601L107.193 -5.07959L184.626 105.506L183.807 106.08L106.374 -4.50601Z" fill="white" fill-opacity="0.2"/>
<path d="M116.374 -4.50601L117.193 -5.07959L194.626 105.506L193.807 106.08L116.374 -4.50601Z" fill="white" fill-opacity="0.2"/>
<path d="M126.374 -4.50601L127.193 -5.07959L204.626 105.506L203.807 106.08L126.374 -4.50601Z" fill="white" fill-opacity="0.2"/>
<path d="M136.374 -4.50601L137.193 -5.07959L214.626 105.506L213.807 106.08L136.374 -4.50601Z" fill="white" fill-opacity="0.2"/>
<path d="M146.374 -4.50601L147.193 -5.07959L224.626 105.506L223.807 106.08L146.374 -4.50601Z" fill="white" fill-opacity="0.2"/>
<path d="M156.374 -4.50601L157.193 -5.07959L234.626 105.506L233.807 106.08L156.374 -4.50601Z" fill="white" fill-opacity="0.2"/>
<path d="M166.374 -4.50601L167.193 -5.07959L244.626 105.506L243.807 106.08L166.374 -4.50601Z" fill="white" fill-opacity="0.2"/>
<path d="M176.374 -4.50601L177.193 -5.07959L254.626 105.506L253.807 106.08L176.374 -4.50601Z" fill="white" fill-opacity="0.2"/>
<path d="M186.374 -4.50601L187.193 -5.07959L264.626 105.506L263.807 106.08L186.374 -4.50601Z" fill="white" fill-opacity="0.2"/>
<path d="M196.374 -4.50601L197.193 -5.07959L274.626 105.506L273.807 106.08L196.374 -4.50601Z" fill="white" fill-opacity="0.2"/>
<path d="M206.374 -4.50601L207.193 -5.07959L284.626 105.506L283.807 106.08L206.374 -4.50601Z" fill="white" fill-opacity="0.2"/>
<path d="M216.374 -4.50601L217.193 -5.07959L294.626 105.506L293.807 106.08L216.374 -4.50601Z" fill="white" fill-opacity="0.2"/>
<path d="M226.374 -4.50601L227.193 -5.07959L304.626 105.506L303.807 106.08L226.374 -4.50601Z" fill="white" fill-opacity="0.2"/>
<path d="M236.374 -4.50601L237.193 -5.07959L314.626 105.506L313.807 106.08L236.374 -4.50601Z" fill="white" fill-opacity="0.2"/>
<path d="M246.374 -4.50601L247.193 -5.07959L324.626 105.506L323.807 106.08L246.374 -4.50601Z" fill="white" fill-opacity="0.2"/>
<path d="M256.374 -4.50601L257.193 -5.07959L334.626 105.506L333.807 106.08L256.374 -4.50601Z" fill="white" fill-opacity="0.2"/>
<path d="M266.374 -4.50601L267.193 -5.07959L344.626 105.506L343.807 106.08L266.374 -4.50601Z" fill="white" fill-opacity="0.2"/>
<path d="M276.374 -4.50601L277.193 -5.07959L354.626 105.506L353.807 106.08L276.374 -4.50601Z" fill="white" fill-opacity="0.2"/>
<path d="M286.374 -4.50601L287.193 -5.07959L364.626 105.506L363.807 106.08L286.374 -4.50601Z" fill="white" fill-opacity="0.2"/>
<path d="M296.374 -4.50601L297.193 -5.07959L374.626 105.506L373.807 106.08L296.374 -4.50601Z" fill="white" fill-opacity="0.2"/>
<path d="M306.374 -4.50601L307.193 -5.07959L384.626 105.506L383.807 106.08L306.374 -4.50601Z" fill="white" fill-opacity="0.2"/>
<path d="M316.374 -4.50601L317.193 -5.07959L394.626 105.506L393.807 106.08L316.374 -4.50601Z" fill="white" fill-opacity="0.2"/>
<path d="M326.374 -4.50601L327.193 -5.07959L404.626 105.506L403.807 106.08L326.374 -4.50601Z" fill="white" fill-opacity="0.2"/>
<path d="M336.374 -4.50601L337.193 -5.07959L414.626 105.506L413.807 106.08L336.374 -4.50601Z" fill="white" fill-opacity="0.2"/>
<path d="M346.374 -4.50601L347.193 -5.07959L424.626 105.506L423.807 106.08L346.374 -4.50601Z" fill="white" fill-opacity="0.2"/>
<path d="M356.374 -4.50601L357.193 -5.07959L434.626 105.506L433.807 106.08L356.374 -4.50601Z" fill="white" fill-opacity="0.2"/>
<path d="M366.374 -4.50601L367.193 -5.07959L444.626 105.506L443.807 106.08L366.374 -4.50601Z" fill="white" fill-opacity="0.2"/>
<path d="M376.374 -4.50601L377.193 -5.07959L454.626 105.506L453.807 106.08L376.374 -4.50601Z" fill="white" fill-opacity="0.2"/>
<path d="M386.374 -4.50601L387.193 -5.07959L464.626 105.506L463.807 106.08L386.374 -4.50601Z" fill="white" fill-opacity="0.2"/>
<path d="M396.374 -4.50601L397.193 -5.07959L474.626 105.506L473.807 106.08L396.374 -4.50601Z" fill="white" fill-opacity="0.2"/>
<path d="M406.374 -4.50601L407.193 -5.07959L484.626 105.506L483.807 106.08L406.374 -4.50601Z" fill="white" fill-opacity="0.2"/>
<path d="M416.374 -4.50601L417.193 -5.07959L494.626 105.506L493.807 106.08L416.374 -4.50601Z" fill="white" fill-opacity="0.2"/>
<path d="M426.374 -4.50601L427.193 -5.07959L504.626 105.506L503.807 106.08L426.374 -4.50601Z" fill="white" fill-opacity="0.2"/>
<path d="M436.374 -4.50601L437.193 -5.07959L514.626 105.506L513.807 106.08L436.374 -4.50601Z" fill="white" fill-opacity="0.2"/>
<path d="M446.374 -4.50601L447.193 -5.07959L524.626 105.506L523.807 106.08L446.374 -4.50601Z" fill="white" fill-opacity="0.2"/>
<path d="M456.374 -4.50601L457.193 -5.07959L534.626 105.506L533.807 106.08L456.374 -4.50601Z" fill="white" fill-opacity="0.2"/>
<path d="M466.374 -4.50601L467.193 -5.07959L544.626 105.506L543.807 106.08L466.374 -4.50601Z" fill="white" fill-opacity="0.2"/>
<path d="M476.374 -4.50601L477.193 -5.07959L554.626 105.506L553.807 106.08L476.374 -4.50601Z" fill="white" fill-opacity="0.2"/>
<path d="M486.374 -4.50601L487.193 -5.07959L564.626 105.506L563.807 106.08L486.374 -4.50601Z" fill="white" fill-opacity="0.2"/>
<path d="M496.374 -4.50601L497.193 -5.07959L574.626 105.506L573.807 106.08L496.374 -4.50601Z" fill="white" fill-opacity="0.2"/>
<path d="M506.374 -4.50601L507.193 -5.07959L584.626 105.506L583.807 106.08L506.374 -4.50601Z" fill="white" fill-opacity="0.2"/>
<path d="M516.374 -4.50601L517.193 -5.07959L594.626 105.506L593.807 106.08L516.374 -4.50601Z" fill="white" fill-opacity="0.2"/>
</g>
</svg>
